<svg xmlns="http://www.w3.org/2000/svg" xmlns:xlink="http://www.w3.org/1999/xlink" width="412" height="847" viewBox="0 0 412 847">
  <defs>
    <clipPath id="clip-loading">
      <rect width="412" height="847"/>
    </clipPath>
  </defs>
  <g id="loading" clip-path="url(#clip-loading)">
    <rect width="412" height="847" fill="#fff"/>
    <g id="Group_13" data-name="Group 13" transform="translate(-17 27.013)">
      <g id="Group_10" data-name="Group 10" transform="translate(127.714 189.987)">
        <g id="Group_3" data-name="Group 3" transform="translate(71.358 0) rotate(42)">
          <line id="Line_3" data-name="Line 3" y2="100.913" transform="translate(6.827 0)" fill="none" stroke="#212121" stroke-linecap="round" stroke-width="2"/>
          <path id="Path_5" data-name="Path 5" d="M6.694,0C6.694,24.671,0,25.156,0,25.156" transform="translate(6.96 0)" fill="none" stroke="#212121" stroke-linecap="round" stroke-width="2"/>
          <path id="Path_6" data-name="Path 6" d="M0,0C0,24.671,6.694,25.156,6.694,25.156" transform="translate(0 0)" fill="none" stroke="#212121" stroke-linecap="round" stroke-width="2"/>
        </g>
        <g id="Group_4" data-name="Group 4" transform="translate(0 7.85) rotate(-42)">
          <line id="Line_4" data-name="Line 4" y2="100.913" transform="translate(10.167 0.137)" fill="none" stroke="#212121" stroke-linecap="round" stroke-width="2"/>
          <path id="Path_7" data-name="Path 7" d="M10.167,25.293C-12.709,18.88,10.167,0,10.167,0" transform="translate(0 0)" fill="none" stroke="#212121" stroke-width="2"/>
        </g>
      </g>
      <g id="Group_8" data-name="Group 8" transform="translate(233.331 189.997)">
        <g id="Ellipse_2" data-name="Ellipse 2" transform="translate(-0.331 0.003)" fill="none" stroke="#212121" stroke-width="2">
          <ellipse cx="42.5" cy="42" rx="42.5" ry="42" stroke="none"/>
          <ellipse cx="42.5" cy="42" rx="41.5" ry="41" fill="none"/>
        </g>
        <g id="Group_5" data-name="Group 5" transform="translate(17.711 32.236)">
          <path id="Path_5-2" data-name="Path 5" d="M-788.015,217.972c0-6.347-8.37-6.472-8.37-6.472" transform="translate(805.088 -211.5)" fill="none" stroke="#388e3c" stroke-linecap="round" stroke-width="2"/>
          <path id="Path_6-2" data-name="Path 6" d="M-796.385,217.972c0-6.347,8.37-6.472,8.37-6.472" transform="translate(796.385 -211.5)" fill="none" stroke="#388e3c" stroke-linecap="round" stroke-width="2"/>
        </g>
        <g id="Group_6" data-name="Group 6" transform="translate(51.545 32.236)">
          <path id="Path_5-3" data-name="Path 5" d="M-788.015,217.972c0-6.347-8.37-6.472-8.37-6.472" transform="translate(805.088 -211.5)" fill="none" stroke="#388e3c" stroke-linecap="round" stroke-width="2"/>
          <path id="Path_6-3" data-name="Path 6" d="M-796.385,217.972c0-6.347,8.37-6.472,8.37-6.472" transform="translate(796.385 -211.5)" fill="none" stroke="#388e3c" stroke-linecap="round" stroke-width="2"/>
        </g>
        <g id="Group_7" data-name="Group 7" transform="translate(34.082 51.881)">
          <path id="Path_5-4" data-name="Path 5" d="M-788.015,211.5c0,6.347-8.37,6.472-8.37,6.472" transform="translate(805.088 -211.5)" fill="none" stroke="#388e3c" stroke-linecap="round" stroke-width="2"/>
          <path id="Path_6-4" data-name="Path 6" d="M-796.385,211.5c0,6.347,8.37,6.472,8.37,6.472" transform="translate(796.385 -211.5)" fill="none" stroke="#388e3c" stroke-linecap="round" stroke-width="2"/>
        </g>
      </g>
    </g>
    <g id="Group_16" data-name="Group 16" transform="translate(-17 356.013)">
      <g id="Group_10-2" data-name="Group 10" transform="translate(127.714 189.987)">
        <g id="Group_3-2" data-name="Group 3" transform="translate(71.358 0) rotate(42)">
          <line id="Line_3-2" data-name="Line 3" y2="100.913" transform="translate(6.827 0)" fill="none" stroke="#212121" stroke-linecap="round" stroke-width="2"/>
          <path id="Path_5-5" data-name="Path 5" d="M6.694,0C6.694,24.671,0,25.156,0,25.156" transform="translate(6.96 0)" fill="none" stroke="#212121" stroke-linecap="round" stroke-width="2"/>
          <path id="Path_6-5" data-name="Path 6" d="M0,0C0,24.671,6.694,25.156,6.694,25.156" transform="translate(0 0)" fill="none" stroke="#212121" stroke-linecap="round" stroke-width="2"/>
        </g>
        <g id="Group_4-2" data-name="Group 4" transform="translate(0 7.85) rotate(-42)">
          <line id="Line_4-2" data-name="Line 4" y2="100.913" transform="translate(10.167 0.137)" fill="none" stroke="#212121" stroke-linecap="round" stroke-width="2"/>
          <path id="Path_7-2" data-name="Path 7" d="M10.167,25.293C-12.709,18.88,10.167,0,10.167,0" transform="translate(0 0)" fill="none" stroke="#212121" stroke-width="2"/>
        </g>
      </g>
      <g id="Group_8-2" data-name="Group 8" transform="translate(233.331 189.997)">
        <g id="Ellipse_2-2" data-name="Ellipse 2" transform="translate(-0.331 0.003)" fill="none" stroke="#212121" stroke-width="2">
          <ellipse cx="42.5" cy="42" rx="42.5" ry="42" stroke="none"/>
          <ellipse cx="42.5" cy="42" rx="41.5" ry="41" fill="none"/>
        </g>
        <g id="Group_5-2" data-name="Group 5" transform="translate(17.711 32.236)">
          <path id="Path_5-6" data-name="Path 5" d="M-788.015,217.972c0-6.347-8.37-6.472-8.37-6.472" transform="translate(805.088 -211.5)" fill="none" stroke="#388e3c" stroke-linecap="round" stroke-width="2"/>
          <path id="Path_6-6" data-name="Path 6" d="M-796.385,217.972c0-6.347,8.37-6.472,8.37-6.472" transform="translate(796.385 -211.5)" fill="none" stroke="#388e3c" stroke-linecap="round" stroke-width="2"/>
        </g>
        <g id="Group_6-2" data-name="Group 6" transform="translate(51.545 32.236)">
          <path id="Path_5-7" data-name="Path 5" d="M-788.015,217.972c0-6.347-8.37-6.472-8.37-6.472" transform="translate(805.088 -211.5)" fill="none" stroke="#388e3c" stroke-linecap="round" stroke-width="2"/>
          <path id="Path_6-7" data-name="Path 6" d="M-796.385,217.972c0-6.347,8.37-6.472,8.37-6.472" transform="translate(796.385 -211.5)" fill="none" stroke="#388e3c" stroke-linecap="round" stroke-width="2"/>
        </g>
        <g id="Group_7-2" data-name="Group 7" transform="translate(34.082 51.881)">
          <path id="Path_5-8" data-name="Path 5" d="M-788.015,211.5c0,6.347-8.37,6.472-8.37,6.472" transform="translate(805.088 -211.5)" fill="none" stroke="#388e3c" stroke-linecap="round" stroke-width="2"/>
          <path id="Path_6-8" data-name="Path 6" d="M-796.385,211.5c0,6.347,8.37,6.472,8.37,6.472" transform="translate(796.385 -211.5)" fill="none" stroke="#388e3c" stroke-linecap="round" stroke-width="2"/>
        </g>
      </g>
    </g>
    <path id="Path_10" data-name="Path 10" d="M-2145,141.1c63.436,19.629,140.925,30.014,140.925,30.014s84.916,8.5,99.476,0c29.759-17.377,3.118-44.346,3.118-44.346S-1957.1,77.3-1846.572,90.98s126.21,57.643,126.21,57.643V-3.55H-2145Z" transform="translate(2139 -46.451)" fill="#4caf50"/>
    <path id="Path_11" data-name="Path 11" d="M-1722.784,24.713c-176.329-55.322-183.025-52.312-202.11-40.371-25.994,16.26-3.054,71.6-112.951,57.8s-107.149,18.041-107.149,18.041V170.541h422.209Z" transform="translate(2141.091 747.155)" fill="#4caf50"/>
  </g>
</svg>
