<svg xmlns="http://www.w3.org/2000/svg" xmlns:xlink="http://www.w3.org/1999/xlink" width="78" height="113" viewBox="0 0 78 113">
  <defs>
    <filter id="EatWell_XO" x="0" y="51" width="78" height="62" filterUnits="userSpaceOnUse">
      <feOffset dy="3" input="SourceAlpha"/>
      <feGaussianBlur stdDeviation="3" result="blur"/>
      <feFlood flood-color="#212121" flood-opacity="0.4"/>
      <feComposite operator="in" in2="blur"/>
      <feComposite in="SourceGraphic"/>
    </filter>
  </defs>
  <g id="logo2" transform="translate(-167 -351)">
    <g id="Group_9" data-name="Group 9" transform="translate(101 209.585)">
      <g id="Ellipse_3" data-name="Ellipse 3" transform="translate(77 141.415)" fill="none" stroke="#212121" stroke-width="1">
        <circle cx="28.5" cy="28.5" r="28.5" stroke="none"/>
        <circle cx="28.5" cy="28.5" r="28" fill="none"/>
      </g>
      <g id="Ellipse_1" data-name="Ellipse 1" transform="translate(78 142.415)" fill="#4caf50" stroke="#fff" stroke-width="1">
        <circle cx="27.5" cy="27.5" r="27.5" stroke="none"/>
        <circle cx="27.5" cy="27.5" r="27" fill="none"/>
      </g>
      <g id="Group_11" data-name="Group 11" transform="translate(117.022 153.353) rotate(42)">
        <line id="Line_3" data-name="Line 3" y2="41.365" transform="translate(2.798 0)" fill="none" stroke="#212121" stroke-linecap="round" stroke-width="1"/>
        <path id="Path_5" data-name="Path 5" d="M2.744,0C2.744,10.113,0,10.312,0,10.312" transform="translate(2.853 0)" fill="none" stroke="#212121" stroke-linecap="round" stroke-width="1"/>
        <path id="Path_6" data-name="Path 6" d="M0,0C0,10.113,2.744,10.312,2.744,10.312" transform="translate(0)" fill="none" stroke="#212121" stroke-linecap="round" stroke-width="1"/>
      </g>
      <g id="Group_2" data-name="Group 2" transform="translate(117.022 152.353) rotate(42)">
        <line id="Line_3-2" data-name="Line 3" y2="41.365" transform="translate(2.798 0)" fill="none" stroke="#fff" stroke-linecap="round" stroke-width="1"/>
        <path id="Path_5-2" data-name="Path 5" d="M2.744,0C2.744,10.113,0,10.312,0,10.312" transform="translate(2.853 0)" fill="none" stroke="#fff" stroke-linecap="round" stroke-width="1"/>
        <path id="Path_6-2" data-name="Path 6" d="M0,0C0,10.113,2.744,10.312,2.744,10.312" transform="translate(0)" fill="none" stroke="#fff" stroke-linecap="round" stroke-width="1"/>
      </g>
      <g id="Group_12" data-name="Group 12" transform="translate(87.772 156.57) rotate(-42)">
        <line id="Line_4" data-name="Line 4" y2="41.365" transform="translate(4.168 0.056)" fill="none" stroke="#212121" stroke-linecap="round" stroke-width="1"/>
        <path id="Path_7" data-name="Path 7" d="M4.168,10.368C-5.21,7.739,4.168,0,4.168,0" transform="translate(0 0)" fill="none" stroke="#212121" stroke-width="1"/>
      </g>
      <g id="Group_1" data-name="Group 1" transform="translate(87.772 155.57) rotate(-42)">
        <line id="Line_4-2" data-name="Line 4" y2="41.365" transform="translate(4.168 0.056)" fill="none" stroke="#fff" stroke-linecap="round" stroke-width="1"/>
        <path id="Path_7-2" data-name="Path 7" d="M4.168,10.368C-5.21,7.739,4.168,0,4.168,0" transform="translate(0 0)" fill="none" stroke="#fff" stroke-width="1"/>
      </g>
    </g>
    <g transform="matrix(1, 0, 0, 1, 167, 351)" filter="url(#EatWell_XO)">
      <text id="EatWell_XO-2" data-name="EatWell
XO" transform="translate(39 76)" fill="#fff" font-size="18" font-family="SegoeUI, Segoe UI"><tspan x="-29.303" y="0">EatWell</tspan><tspan x="-11.993" y="20">XO</tspan></text>
    </g>
  </g>
</svg>
